<mxfile host="app.diagrams.net" agent="Mozilla/5.0 (Windows NT 10.0; Win64; x64) AppleWebKit/537.36 (KHTML, like Gecko) Chrome/131.0.0.0 Safari/537.36" version="26.0.2">
  <diagram name="Page-1" id="R4NtgxcgLrUnnDhOgL7Y">
    <mxGraphModel dx="1134" dy="654" grid="1" gridSize="10" guides="1" tooltips="1" connect="1" arrows="1" fold="1" page="1" pageScale="1" pageWidth="850" pageHeight="1100" math="0" shadow="0">
      <root>
        <mxCell id="0" />
        <mxCell id="1" parent="0" />
        <mxCell id="xU6kf9yTiKrliHDxfNMO-1" value="Begin" style="ellipse;whiteSpace=wrap;html=1;fillColor=#ffe6cc;strokeColor=#d79b00;" parent="1" vertex="1">
          <mxGeometry x="460" y="50" width="130" height="60" as="geometry" />
        </mxCell>
        <mxCell id="xU6kf9yTiKrliHDxfNMO-2" value="" style="endArrow=classic;html=1;rounded=0;exitX=0.5;exitY=1;exitDx=0;exitDy=0;" parent="1" source="xU6kf9yTiKrliHDxfNMO-1" edge="1">
          <mxGeometry width="50" height="50" relative="1" as="geometry">
            <mxPoint x="510" y="210" as="sourcePoint" />
            <mxPoint x="525" y="150" as="targetPoint" />
          </mxGeometry>
        </mxCell>
        <mxCell id="xU6kf9yTiKrliHDxfNMO-14" value="" style="edgeStyle=orthogonalEdgeStyle;rounded=0;orthogonalLoop=1;jettySize=auto;html=1;" parent="1" source="xU6kf9yTiKrliHDxfNMO-3" target="xU6kf9yTiKrliHDxfNMO-11" edge="1">
          <mxGeometry relative="1" as="geometry" />
        </mxCell>
        <mxCell id="xU6kf9yTiKrliHDxfNMO-3" value="Input C" style="shape=parallelogram;perimeter=parallelogramPerimeter;whiteSpace=wrap;html=1;fixedSize=1;fillColor=#d5e8d4;strokeColor=#82b366;" parent="1" vertex="1">
          <mxGeometry x="420" y="150" width="210" height="50" as="geometry" />
        </mxCell>
        <mxCell id="xU6kf9yTiKrliHDxfNMO-10" value="" style="endArrow=classic;html=1;rounded=0;exitX=0.5;exitY=1;exitDx=0;exitDy=0;" parent="1" edge="1">
          <mxGeometry width="50" height="50" relative="1" as="geometry">
            <mxPoint x="524.5" y="200" as="sourcePoint" />
            <mxPoint x="524.5" y="240" as="targetPoint" />
          </mxGeometry>
        </mxCell>
        <mxCell id="xU6kf9yTiKrliHDxfNMO-17" value="" style="edgeStyle=orthogonalEdgeStyle;rounded=0;orthogonalLoop=1;jettySize=auto;html=1;" parent="1" source="xU6kf9yTiKrliHDxfNMO-11" target="xU6kf9yTiKrliHDxfNMO-16" edge="1">
          <mxGeometry relative="1" as="geometry" />
        </mxCell>
        <mxCell id="xU6kf9yTiKrliHDxfNMO-11" value="F = (9*C)/5 + 32" style="rounded=0;whiteSpace=wrap;html=1;fillColor=#f8cecc;strokeColor=#b85450;" parent="1" vertex="1">
          <mxGeometry x="420" y="240" width="210" height="60" as="geometry" />
        </mxCell>
        <mxCell id="xU6kf9yTiKrliHDxfNMO-15" value="" style="endArrow=classic;html=1;rounded=0;exitX=0.5;exitY=1;exitDx=0;exitDy=0;" parent="1" edge="1">
          <mxGeometry width="50" height="50" relative="1" as="geometry">
            <mxPoint x="524.5" y="300" as="sourcePoint" />
            <mxPoint x="524.5" y="340" as="targetPoint" />
          </mxGeometry>
        </mxCell>
        <mxCell id="xU6kf9yTiKrliHDxfNMO-16" value="Display F" style="shape=parallelogram;perimeter=parallelogramPerimeter;whiteSpace=wrap;html=1;fixedSize=1;fillColor=#d5e8d4;strokeColor=#82b366;" parent="1" vertex="1">
          <mxGeometry x="420" y="340" width="210" height="50" as="geometry" />
        </mxCell>
        <mxCell id="xU6kf9yTiKrliHDxfNMO-18" value="" style="endArrow=classic;html=1;rounded=0;exitX=0.5;exitY=1;exitDx=0;exitDy=0;" parent="1" edge="1">
          <mxGeometry width="50" height="50" relative="1" as="geometry">
            <mxPoint x="524.5" y="390" as="sourcePoint" />
            <mxPoint x="524.5" y="430" as="targetPoint" />
          </mxGeometry>
        </mxCell>
        <mxCell id="xU6kf9yTiKrliHDxfNMO-19" value="End" style="ellipse;whiteSpace=wrap;html=1;fillColor=#ffe6cc;strokeColor=#d79b00;" parent="1" vertex="1">
          <mxGeometry x="460" y="430" width="130" height="60" as="geometry" />
        </mxCell>
        <mxCell id="XjvgrJ8XGlbfVSMgNpwu-2" value="&lt;h1 style=&quot;margin-top: 0px;&quot;&gt;Pseudo-code&lt;/h1&gt;&lt;p&gt;Begin&lt;/p&gt;&lt;p&gt;&amp;nbsp; &amp;nbsp; Input C&lt;/p&gt;&lt;p&gt;&amp;nbsp; &amp;nbsp; F = (9*C)/5 + 32&lt;/p&gt;&lt;p&gt;&amp;nbsp; &amp;nbsp; Display F&lt;/p&gt;&lt;p&gt;End&lt;/p&gt;" style="text;html=1;whiteSpace=wrap;overflow=hidden;rounded=0;fillColor=default;" vertex="1" parent="1">
          <mxGeometry x="30" y="60" width="180" height="230" as="geometry" />
        </mxCell>
      </root>
    </mxGraphModel>
  </diagram>
</mxfile>
